g Coin_Tube
v 0.5068926 0.13582191 -1.6391277E-07
v 0.52477396 4.647069E-07 -1.6391277E-07
v 0.50689286 -0.13582103 -1.3411045E-07
v 0.4544678 -0.26238653 -1.0430813E-07
v 0.4544674 0.26238734 -1.6391277E-07
v 0.37107158 -0.3710708 -7.4505806E-08
v 0.37107092 0.37107155 -1.3411045E-07
v 0.26238742 -0.4544673 -2.9802322E-08
v 0.26238668 0.4544678 -1.0430813E-07
v 0.135822 -0.50689256 1.4901161E-08
v 0.1358212 0.506893 -7.4505806E-08
v 5.5499197E-07 -0.5247739 4.4703484E-08
v -3.4007323E-07 0.5247741 -4.4703484E-08
v -0.13582094 -0.50689274 1.0430813E-07
v -0.13582216 0.5068926 1.4901161E-08
v -0.26238644 -0.45446783 1.3411045E-07
v -0.2623876 0.4544673 5.9604645E-08
v -0.37107077 -0.3710716 1.6391277E-07
v -0.37107173 0.37107077 1.0430813E-07
v -0.4544673 -0.26238742 1.6391277E-07
v -0.45446792 0.26238647 1.3411045E-07
v -0.5068926 -0.13582192 1.6391277E-07
v -0.50689286 0.13582097 1.6391277E-07
v -0.524774 -4.964044E-07 1.6391277E-07
v 0.50689286 -0.13582103 -0.20000005
v 0.52477396 4.5802912E-07 -0.20000005
v 0.5068926 0.13582191 -0.20000005
v 0.4544678 -0.2623866 -0.19999999
v 0.4544674 0.2623873 -0.20000005
v 0.37107158 -0.37107086 -0.19999999
v 0.37107098 0.3710715 -0.20000005
v 0.2623874 -0.45446736 -0.19999994
v 0.26238668 0.4544678 -0.19999999
v 0.135822 -0.50689256 -0.1999999
v 0.13582116 0.5068929 -0.19999999
v 5.282807E-07 -0.5247739 -0.19999988
v -3.6721983E-07 0.524774 -0.19999994
v -0.13582097 -0.5068928 -0.19999982
v -0.13582219 0.5068926 -0.19999988
v -0.26238644 -0.45446786 -0.19999976
v -0.26238763 0.45446727 -0.19999988
v -0.37107077 -0.37107167 -0.19999976
v -0.37107173 0.37107077 -0.19999982
v -0.4544673 -0.26238742 -0.19999976
v -0.45446792 0.26238644 -0.19999978
v -0.5068926 -0.13582192 -0.19999973
v -0.50689286 0.13582097 -0.19999976
v -0.524774 -5.0264697E-07 -0.19999976
v 0.4544674 0.26238734 -1.6391277E-07
v 0.5068926 0.13582191 -0.20000005
v 0.5068926 0.13582191 -1.6391277E-07
v 0.52477396 4.647069E-07 -1.6391277E-07
v 0.4544674 0.2623873 -0.20000005
v 0.52477396 4.5802912E-07 -0.20000005
v 0.50689286 -0.13582103 -1.3411045E-07
v 0.50689286 -0.13582103 -0.20000005
v 0.4544678 -0.26238653 -1.0430813E-07
v 0.4544678 -0.2623866 -0.19999999
v 0.37107092 0.37107155 -1.3411045E-07
v 0.37107098 0.3710715 -0.20000005
v 0.26238668 0.4544678 -0.19999999
v 0.26238668 0.4544678 -1.0430813E-07
v 0.13582116 0.5068929 -0.19999999
v 0.1358212 0.506893 -7.4505806E-08
v -3.6721983E-07 0.524774 -0.19999994
v -3.4007323E-07 0.5247741 -4.4703484E-08
v -0.13582219 0.5068926 -0.19999988
v -0.13582216 0.5068926 1.4901161E-08
v -0.26238763 0.45446727 -0.19999988
v -0.2623876 0.4544673 5.9604645E-08
v -0.37107173 0.37107077 -0.19999982
v -0.37107173 0.37107077 1.0430813E-07
v -0.45446792 0.26238644 -0.19999978
v -0.45446792 0.26238647 1.3411045E-07
v -0.50689286 0.13582097 1.6391277E-07
v -0.50689286 0.13582097 -0.19999976
v -0.524774 -5.0264697E-07 -0.19999976
v -0.524774 -4.964044E-07 1.6391277E-07
v -0.5068926 -0.13582192 -0.19999973
v -0.5068926 -0.13582192 1.6391277E-07
v -0.4544673 -0.26238742 -0.19999976
v -0.4544673 -0.26238742 1.6391277E-07
v -0.37107077 -0.3710716 1.6391277E-07
v -0.37107077 -0.37107167 -0.19999976
v -0.26238644 -0.45446783 1.3411045E-07
v -0.26238644 -0.45446786 -0.19999976
v -0.13582097 -0.5068928 -0.19999982
v -0.13582094 -0.50689274 1.0430813E-07
v 5.282807E-07 -0.5247739 -0.19999988
v 5.5499197E-07 -0.5247739 4.4703484E-08
v 0.135822 -0.50689256 -0.1999999
v 0.135822 -0.50689256 1.4901161E-08
v 0.2623874 -0.45446736 -0.19999994
v 0.26238742 -0.4544673 -2.9802322E-08
v 0.37107158 -0.3710708 -7.4505806E-08
v 0.37107158 -0.37107086 -0.19999999
vt 0.52380675 0.650115
vt 0.52380675 0.650115
vt 0.52380675 0.650115
vt 0.52380675 0.650115
vt 0.52380675 0.650115
vt 0.52380675 0.650115
vt 0.52380675 0.650115
vt 0.52380675 0.650115
vt 0.52380675 0.650115
vt 0.52380675 0.650115
vt 0.52380675 0.650115
vt 0.52380675 0.650115
vt 0.52380675 0.650115
vt 0.52380675 0.650115
vt 0.52380675 0.650115
vt 0.52380675 0.650115
vt 0.52380675 0.650115
vt 0.52380675 0.650115
vt 0.52380675 0.650115
vt 0.52380675 0.650115
vt 0.52380675 0.650115
vt 0.52380675 0.650115
vt 0.52380675 0.650115
vt 0.52380675 0.650115
vt 0.50380677 0.97636503
vt 0.50380677 0.97636503
vt 0.50380677 0.97636503
vt 0.50380677 0.97636503
vt 0.50380677 0.97636503
vt 0.50380677 0.97636503
vt 0.50380677 0.97636503
vt 0.50380677 0.97636503
vt 0.50380677 0.97636503
vt 0.50380677 0.97636503
vt 0.50380677 0.97636503
vt 0.50380677 0.97636503
vt 0.50380677 0.97636503
vt 0.50380677 0.97636503
vt 0.50380677 0.97636503
vt 0.50380677 0.97636503
vt 0.50380677 0.97636503
vt 0.50380677 0.97636503
vt 0.50380677 0.97636503
vt 0.50380677 0.97636503
vt 0.50380677 0.97636503
vt 0.50380677 0.97636503
vt 0.50380677 0.97636503
vt 0.50380677 0.97636503
vt 0.50380677 0.840115
vt 0.50380677 0.840115
vt 0.50380677 0.840115
vt 0.50380677 0.840115
vt 0.50380677 0.840115
vt 0.50380677 0.840115
vt 0.50380677 0.840115
vt 0.50380677 0.840115
vt 0.50380677 0.840115
vt 0.50380677 0.840115
vt 0.50380677 0.840115
vt 0.50380677 0.840115
vt 0.50380677 0.840115
vt 0.50380677 0.840115
vt 0.50380677 0.840115
vt 0.50380677 0.840115
vt 0.50380677 0.840115
vt 0.50380677 0.840115
vt 0.50380677 0.840115
vt 0.50380677 0.840115
vt 0.50380677 0.840115
vt 0.50380677 0.840115
vt 0.50380677 0.840115
vt 0.50380677 0.840115
vt 0.50380677 0.840115
vt 0.50380677 0.840115
vt 0.50380677 0.840115
vt 0.50380677 0.840115
vt 0.50380677 0.840115
vt 0.50380677 0.840115
vt 0.50380677 0.840115
vt 0.50380677 0.840115
vt 0.50380677 0.840115
vt 0.50380677 0.840115
vt 0.50380677 0.840115
vt 0.50380677 0.840115
vt 0.50380677 0.840115
vt 0.50380677 0.840115
vt 0.50380677 0.840115
vt 0.50380677 0.840115
vt 0.50380677 0.840115
vt 0.50380677 0.840115
vt 0.50380677 0.840115
vt 0.50380677 0.840115
vt 0.50380677 0.840115
vt 0.50380677 0.840115
vt 0.50380677 0.840115
vt 0.50380677 0.840115
vn 3.1284873E-07 0 1
vn 3.1284873E-07 0 1
vn 3.1284873E-07 0 1
vn 3.1284873E-07 0 1
vn 3.1284873E-07 0 1
vn 3.1284873E-07 0 1
vn 3.1284873E-07 0 1
vn 3.1284873E-07 0 1
vn 3.1284873E-07 0 1
vn 3.1284873E-07 0 1
vn 3.1284873E-07 0 1
vn 3.1284873E-07 0 1
vn 3.1284873E-07 0 1
vn 3.1284873E-07 0 1
vn 3.1284873E-07 0 1
vn 3.1284873E-07 0 1
vn 3.1284873E-07 0 1
vn 3.1284873E-07 0 1
vn 3.1284873E-07 0 1
vn 3.1284873E-07 0 1
vn 3.1284873E-07 0 1
vn 3.1284873E-07 0 1
vn 3.1284873E-07 0 1
vn 3.1284873E-07 0 1
vn -2.987777E-07 0 -1
vn -2.987777E-07 0 -1
vn -2.987777E-07 0 -1
vn -2.987777E-07 0 -1
vn -2.987777E-07 0 -1
vn -2.987777E-07 0 -1
vn -2.987777E-07 0 -1
vn -2.987777E-07 0 -1
vn -2.987777E-07 0 -1
vn -2.987777E-07 0 -1
vn -2.987777E-07 0 -1
vn -2.987777E-07 0 -1
vn -2.987777E-07 0 -1
vn -2.987777E-07 0 -1
vn -2.987777E-07 0 -1
vn -2.987777E-07 0 -1
vn -2.987777E-07 0 -1
vn -2.987777E-07 0 -1
vn -2.987777E-07 0 -1
vn -2.987777E-07 0 -1
vn -2.987777E-07 0 -1
vn -2.987777E-07 0 -1
vn -2.987777E-07 0 -1
vn -2.987777E-07 0 -1
vn 0.8660251 0.50000066 0
vn 0.96592563 0.25881976 0
vn 0.96592563 0.25881976 0
vn 1 8.7549313E-07 0
vn 0.8660251 0.50000066 0
vn 1 8.754932E-07 0
vn 0.96592605 -0.25881827 0
vn 0.96592605 -0.2588182 0
vn 0.8660258 -0.49999934 0
vn 0.8660258 -0.49999928 0
vn 0.70710623 0.7071073 0
vn 0.70710623 0.70710725 0
vn 0.49999952 0.8660257 -1.00699154E-07
vn 0.4999995 0.8660257 -1.0069917E-07
vn 0.2588187 0.96592593 -2.261521E-07
vn 0.25881866 0.96592593 -2.2615212E-07
vn -9.376867E-07 1 -2.2186599E-07
vn -9.759596E-07 1 -2.2186599E-07
vn -0.2588204 0.9659255 0
vn -0.2588204 0.9659255 0
vn -0.5000012 0.86602473 0
vn -0.50000113 0.86602473 0
vn -0.7071077 0.7071058 0
vn -0.7071078 0.7071057 0
vn -0.86602616 0.49999878 0
vn -0.86602616 0.49999872 0
vn -0.96592605 0.2588181 1.3713928E-07
vn -0.96592605 0.2588181 1.3713928E-07
vn -1 -8.8027736E-07 0
vn -1 -8.8027736E-07 0
vn -0.9659255 -0.25882024 0
vn -0.9659255 -0.25882024 0
vn -0.8660248 -0.50000095 0
vn -0.8660249 -0.5000009 0
vn -0.70710605 -0.7071075 0
vn -0.70710605 -0.70710754 0
vn -0.4999988 -0.86602604 1.9536121E-07
vn -0.4999988 -0.86602604 1.9536124E-07
vn -0.2588178 -0.9659262 2.1151867E-07
vn -0.25881785 -0.9659262 2.1151867E-07
vn 8.3243617E-07 -1 0
vn 8.037314E-07 -1 0
vn 0.25881985 -0.96592563 0
vn 0.2588198 -0.96592563 0
vn 0.50000083 -0.8660249 1.7142408E-07
vn 0.50000083 -0.8660249 1.7142406E-07
vn 0.7071074 -0.7071061 1.7357905E-07
vn 0.7071074 -0.70710605 1.7357902E-07
g Coin_Tube_0
f 3/3/3 2/2/2 1/1/1
f 1/1/1 4/4/4 3/3/3
f 1/1/1 5/5/5 4/4/4
f 5/5/5 6/6/6 4/4/4
f 5/5/5 7/7/7 6/6/6
f 7/7/7 8/8/8 6/6/6
f 7/7/7 9/9/9 8/8/8
f 9/9/9 10/10/10 8/8/8
f 9/9/9 11/11/11 10/10/10
f 11/11/11 12/12/12 10/10/10
f 11/11/11 13/13/13 12/12/12
f 13/13/13 14/14/14 12/12/12
f 13/13/13 15/15/15 14/14/14
f 15/15/15 16/16/16 14/14/14
f 15/15/15 17/17/17 16/16/16
f 17/17/17 18/18/18 16/16/16
f 17/17/17 19/19/19 18/18/18
f 19/19/19 20/20/20 18/18/18
f 19/19/19 21/21/21 20/20/20
f 21/21/21 22/22/22 20/20/20
f 21/21/21 23/23/23 22/22/22
f 23/23/23 24/24/24 22/22/22
f 27/27/27 26/26/26 25/25/25
f 25/25/25 28/28/28 27/27/27
f 28/28/28 29/29/29 27/27/27
f 28/28/28 30/30/30 29/29/29
f 30/30/30 31/31/31 29/29/29
f 30/30/30 32/32/32 31/31/31
f 32/32/32 33/33/33 31/31/31
f 32/32/32 34/34/34 33/33/33
f 34/34/34 35/35/35 33/33/33
f 34/34/34 36/36/36 35/35/35
f 36/36/36 37/37/37 35/35/35
f 36/36/36 38/38/38 37/37/37
f 38/38/38 39/39/39 37/37/37
f 38/38/38 40/40/40 39/39/39
f 40/40/40 41/41/41 39/39/39
f 40/40/40 42/42/42 41/41/41
f 42/42/42 43/43/43 41/41/41
f 42/42/42 44/44/44 43/43/43
f 44/44/44 45/45/45 43/43/43
f 44/44/44 46/46/46 45/45/45
f 46/46/46 47/47/47 45/45/45
f 46/46/46 48/48/48 47/47/47
f 51/51/51 50/50/50 49/49/49
f 51/51/51 52/52/52 50/50/50
f 50/50/50 53/53/53 49/49/49
f 52/52/52 54/54/54 50/50/50
f 52/52/52 55/55/55 54/54/54
f 55/55/55 56/56/56 54/54/54
f 55/55/55 57/57/57 56/56/56
f 57/57/57 58/58/58 56/56/56
f 49/49/49 53/53/53 59/59/59
f 53/53/53 60/60/60 59/59/59
f 59/59/59 60/60/60 61/61/61
f 62/62/62 59/59/59 61/61/61
f 62/62/62 61/61/61 63/63/63
f 64/64/64 62/62/62 63/63/63
f 64/64/64 63/63/63 65/65/65
f 66/66/66 64/64/64 65/65/65
f 66/66/66 65/65/65 67/67/67
f 68/68/68 66/66/66 67/67/67
f 68/68/68 67/67/67 69/69/69
f 70/70/70 68/68/68 69/69/69
f 70/70/70 69/69/69 71/71/71
f 72/72/72 70/70/70 71/71/71
f 72/72/72 71/71/71 73/73/73
f 74/74/74 72/72/72 73/73/73
f 74/74/74 73/73/73 75/75/75
f 73/73/73 76/76/76 75/75/75
f 75/75/75 76/76/76 77/77/77
f 78/78/78 75/75/75 77/77/77
f 78/78/78 77/77/77 79/79/79
f 80/80/80 78/78/78 79/79/79
f 80/80/80 79/79/79 81/81/81
f 82/82/82 80/80/80 81/81/81
f 82/82/82 81/81/81 83/83/83
f 81/81/81 84/84/84 83/83/83
f 83/83/83 84/84/84 85/85/85
f 84/84/84 86/86/86 85/85/85
f 85/85/85 86/86/86 87/87/87
f 88/88/88 85/85/85 87/87/87
f 88/88/88 87/87/87 89/89/89
f 90/90/90 88/88/88 89/89/89
f 90/90/90 89/89/89 91/91/91
f 92/92/92 90/90/90 91/91/91
f 92/92/92 91/91/91 93/93/93
f 94/94/94 92/92/92 93/93/93
f 94/94/94 93/93/93 95/95/95
f 93/93/93 96/96/96 95/95/95
f 95/95/95 96/96/96 58/58/58
f 57/57/57 95/95/95 58/58/58
